<svg width="513" height="512" viewBox="0 0 513 512" fill="none" xmlns="http://www.w3.org/2000/svg">
 <g clip-path="url(#clip0_2243_16531)">
  <path
   d="M500.25 0H12.25C5.62258 0 0.25 5.37258 0.25 12V500C0.25 506.627 5.62258 512 12.25 512H500.25C506.877 512 512.25 506.627 512.25 500V12C512.25 5.37258 506.877 0 500.25 0Z"
   fill="#21428D" />
  <path
   d="M262.357 262.912C248.731 254.104 227.049 247.102 209.508 245.822C197.387 244.994 195.053 244.919 186.922 245.446C142.58 248.382 107.046 270.817 88.5264 307.405C82.9554 318.623 78.8901 333.002 77.3844 347.231C72.1145 397.672 95.0761 442.994 136.783 464.45C155.83 474.162 172.543 478.076 195.957 478.076C220.198 478.076 239.621 473.032 256.56 462.342C264.164 457.599 277.564 447.059 292.696 434.185L302.86 425.452L305.495 430.873C317.013 454.286 337.867 469.795 366.098 475.968C374.982 477.851 395.911 478.603 406.149 477.399C429.638 474.463 448.685 465.353 463.44 449.845C473.679 439.004 480.078 426.958 484.143 410.395C485.649 404.071 485.724 402.34 485.95 327.281L486.251 250.716H459.45H432.724V320.279C432.724 379.227 432.574 390.821 431.595 396.468C428.659 413.256 418.195 425.226 403.288 428.765C400.653 429.367 395.082 429.894 390.942 429.894C371.217 429.894 358.871 421.312 352.396 403.168L350.289 397.145L349.912 324.119L349.536 251.092L323.036 250.867L296.46 250.716V307.104V363.493L284.265 375.162C250.613 407.233 229.081 423.194 214.025 427.334C206.421 429.367 192.719 429.593 183.986 427.786C159.067 422.591 141.827 403.996 136.031 376.065C134.6 369.365 134.826 352.426 136.407 345.198C139.418 331.497 145.29 320.43 154.475 311.32C167.273 298.672 182.857 292.876 201.979 293.854C217.187 294.607 229.157 299.425 238.266 308.309L243.686 313.654L261.529 295.812C273.499 283.841 279.22 277.593 278.919 276.84C278.317 275.184 268.304 266.752 262.357 262.912Z"
   fill="white" />
  <path
   d="M167.216 90.63C160.476 69.4367 177.723 42.2212 223.158 35.4301C268.594 28.6391 310.877 45.4502 317.591 72.9732C318.642 77.3297 317.412 82.1475 316.669 86.4272C306.495 57.9816 213.19 22.5912 167.216 90.63ZM476.013 220.89C232.051 18.1577 -6.8637 208.718 30.0382 405.556L53.3838 430.311C4.84752 202.055 232.051 120.177 387.269 220.865H476.039L476.013 220.89ZM212.856 70.0774C204.272 72.3325 194.969 79.3542 188.947 84.8127L188.255 131.991C195.994 129.48 203.938 127.353 212.036 125.636L212.856 70.103V70.0774ZM253.679 67.7966C246.222 67.1047 237.945 67.0791 230 67.8479L229.18 122.612C237.201 121.51 245.376 120.792 253.679 120.459V67.7966ZM296.116 81.6606C289.582 77.2785 281.304 73.7676 272.591 71.3075L271.848 120.408C279.639 120.664 287.557 121.279 295.553 122.279L296.116 81.635V81.6606Z"
   fill="#EEAE27" />
 </g>
 <defs>
  <clipPath id="clip0_2243_16531">
   <rect width="512" height="512" fill="white" transform="translate(0.25)" />
  </clipPath>
 </defs>
</svg>